<mxfile host="app.diagrams.net" agent="Mozilla/5.0 (Windows NT 10.0; Win64; x64) AppleWebKit/537.36 (KHTML, like Gecko) Chrome/135.0.0.0 Safari/537.36" version="26.2.14" pages="6">
  <diagram name="Page-1" id="loPU3zmZzHOAl2yBzBA7">
    <mxGraphModel dx="2627" dy="1417" grid="1" gridSize="10" guides="1" tooltips="1" connect="1" arrows="1" fold="1" page="1" pageScale="1" pageWidth="850" pageHeight="1100" math="0" shadow="0" adaptiveColors="simple">
      <root>
        <mxCell id="0" />
        <mxCell id="1" parent="0" />
      </root>
    </mxGraphModel>
  </diagram>
  <diagram id="fWWd-IGaokTDZ0jOi2e6" name="Page-2">
    <mxGraphModel dx="1042" dy="570" grid="1" gridSize="10" guides="1" tooltips="1" connect="1" arrows="1" fold="1" page="1" pageScale="1" pageWidth="850" pageHeight="1100" math="0" shadow="0">
      <root>
        <mxCell id="0" />
        <mxCell id="1" parent="0" />
        <mxCell id="iDkQdx9FitHDoWIYwLgk-24" style="edgeStyle=orthogonalEdgeStyle;rounded=0;orthogonalLoop=1;jettySize=auto;html=1;exitX=1;exitY=0.5;exitDx=0;exitDy=0;entryX=0;entryY=0.5;entryDx=0;entryDy=0;" edge="1" parent="1" source="AxxpQYqutu6Z9lSdm2nC-1" target="AxxpQYqutu6Z9lSdm2nC-2">
          <mxGeometry relative="1" as="geometry" />
        </mxCell>
        <mxCell id="AxxpQYqutu6Z9lSdm2nC-1" value="שרת" style="ellipse;whiteSpace=wrap;html=1;" parent="1" vertex="1">
          <mxGeometry x="230" y="180" width="120" height="80" as="geometry" />
        </mxCell>
        <mxCell id="AxxpQYqutu6Z9lSdm2nC-5" style="edgeStyle=orthogonalEdgeStyle;rounded=0;orthogonalLoop=1;jettySize=auto;html=1;exitX=0.5;exitY=1;exitDx=0;exitDy=0;entryX=0.5;entryY=0;entryDx=0;entryDy=0;" parent="1" source="AxxpQYqutu6Z9lSdm2nC-2" target="AxxpQYqutu6Z9lSdm2nC-4" edge="1">
          <mxGeometry relative="1" as="geometry" />
        </mxCell>
        <mxCell id="AxxpQYqutu6Z9lSdm2nC-2" value="התחברות" style="rounded=1;whiteSpace=wrap;html=1;" parent="1" vertex="1">
          <mxGeometry x="405" y="190" width="120" height="60" as="geometry" />
        </mxCell>
        <mxCell id="iDkQdx9FitHDoWIYwLgk-4" style="edgeStyle=orthogonalEdgeStyle;rounded=0;orthogonalLoop=1;jettySize=auto;html=1;exitX=0.5;exitY=1;exitDx=0;exitDy=0;entryX=0.5;entryY=0;entryDx=0;entryDy=0;" edge="1" parent="1" source="AxxpQYqutu6Z9lSdm2nC-4" target="iDkQdx9FitHDoWIYwLgk-3">
          <mxGeometry relative="1" as="geometry" />
        </mxCell>
        <mxCell id="iDkQdx9FitHDoWIYwLgk-11" style="edgeStyle=orthogonalEdgeStyle;rounded=0;orthogonalLoop=1;jettySize=auto;html=1;exitX=0.5;exitY=1;exitDx=0;exitDy=0;entryX=0.5;entryY=0;entryDx=0;entryDy=0;" edge="1" parent="1" source="AxxpQYqutu6Z9lSdm2nC-4" target="iDkQdx9FitHDoWIYwLgk-10">
          <mxGeometry relative="1" as="geometry" />
        </mxCell>
        <mxCell id="iDkQdx9FitHDoWIYwLgk-18" style="edgeStyle=orthogonalEdgeStyle;rounded=0;orthogonalLoop=1;jettySize=auto;html=1;exitX=0.5;exitY=1;exitDx=0;exitDy=0;entryX=0.5;entryY=0;entryDx=0;entryDy=0;" edge="1" parent="1" source="AxxpQYqutu6Z9lSdm2nC-4" target="iDkQdx9FitHDoWIYwLgk-17">
          <mxGeometry relative="1" as="geometry" />
        </mxCell>
        <mxCell id="AxxpQYqutu6Z9lSdm2nC-4" value="המתנה ללקוח ראשון" style="rounded=1;whiteSpace=wrap;html=1;" parent="1" vertex="1">
          <mxGeometry x="405" y="290" width="120" height="60" as="geometry" />
        </mxCell>
        <mxCell id="M4k14wv83IE-usvoSfUF-2" value="ביצוע פעולה לפי&lt;div&gt;סוג הודעה&lt;/div&gt;" style="rounded=1;whiteSpace=wrap;html=1;" parent="1" vertex="1">
          <mxGeometry x="405" y="620" width="120" height="60" as="geometry" />
        </mxCell>
        <mxCell id="M4k14wv83IE-usvoSfUF-8" value="לכל משחק: ריצת משחק" style="rounded=1;whiteSpace=wrap;html=1;" parent="1" vertex="1">
          <mxGeometry x="585" y="620" width="120" height="60" as="geometry" />
        </mxCell>
        <mxCell id="iDkQdx9FitHDoWIYwLgk-1" value="התחברות לקוח" style="rounded=1;whiteSpace=wrap;html=1;" vertex="1" parent="1">
          <mxGeometry x="225" y="620" width="120" height="60" as="geometry" />
        </mxCell>
        <mxCell id="iDkQdx9FitHDoWIYwLgk-5" style="edgeStyle=orthogonalEdgeStyle;rounded=0;orthogonalLoop=1;jettySize=auto;html=1;exitX=0.5;exitY=1;exitDx=0;exitDy=0;entryX=0.5;entryY=0;entryDx=0;entryDy=0;" edge="1" parent="1" source="iDkQdx9FitHDoWIYwLgk-3" target="iDkQdx9FitHDoWIYwLgk-1">
          <mxGeometry relative="1" as="geometry" />
        </mxCell>
        <mxCell id="iDkQdx9FitHDoWIYwLgk-6" value="כן" style="edgeLabel;html=1;align=center;verticalAlign=middle;resizable=0;points=[];" vertex="1" connectable="0" parent="iDkQdx9FitHDoWIYwLgk-5">
          <mxGeometry x="-0.16" y="-1" relative="1" as="geometry">
            <mxPoint as="offset" />
          </mxGeometry>
        </mxCell>
        <mxCell id="iDkQdx9FitHDoWIYwLgk-3" value="יש לקוח ממתין&lt;div&gt;להתחברות?&lt;/div&gt;" style="rhombus;whiteSpace=wrap;html=1;" vertex="1" parent="1">
          <mxGeometry x="230" y="420" width="110" height="110" as="geometry" />
        </mxCell>
        <mxCell id="iDkQdx9FitHDoWIYwLgk-8" style="edgeStyle=orthogonalEdgeStyle;rounded=0;orthogonalLoop=1;jettySize=auto;html=1;exitX=0;exitY=0.5;exitDx=0;exitDy=0;entryX=0;entryY=0;entryDx=0;entryDy=0;" edge="1" parent="1" source="iDkQdx9FitHDoWIYwLgk-3" target="iDkQdx9FitHDoWIYwLgk-3">
          <mxGeometry relative="1" as="geometry">
            <Array as="points">
              <mxPoint x="200" y="475" />
              <mxPoint x="200" y="420" />
              <mxPoint x="258" y="420" />
            </Array>
          </mxGeometry>
        </mxCell>
        <mxCell id="iDkQdx9FitHDoWIYwLgk-9" value="לא" style="edgeLabel;html=1;align=center;verticalAlign=middle;resizable=0;points=[];" vertex="1" connectable="0" parent="iDkQdx9FitHDoWIYwLgk-8">
          <mxGeometry x="0.2533" y="-1" relative="1" as="geometry">
            <mxPoint as="offset" />
          </mxGeometry>
        </mxCell>
        <mxCell id="iDkQdx9FitHDoWIYwLgk-15" style="edgeStyle=orthogonalEdgeStyle;rounded=0;orthogonalLoop=1;jettySize=auto;html=1;exitX=0.5;exitY=1;exitDx=0;exitDy=0;entryX=0.5;entryY=0;entryDx=0;entryDy=0;" edge="1" parent="1" source="iDkQdx9FitHDoWIYwLgk-10" target="M4k14wv83IE-usvoSfUF-2">
          <mxGeometry relative="1" as="geometry" />
        </mxCell>
        <mxCell id="iDkQdx9FitHDoWIYwLgk-16" value="כן" style="edgeLabel;html=1;align=center;verticalAlign=middle;resizable=0;points=[];" vertex="1" connectable="0" parent="iDkQdx9FitHDoWIYwLgk-15">
          <mxGeometry x="-0.0756" y="1" relative="1" as="geometry">
            <mxPoint as="offset" />
          </mxGeometry>
        </mxCell>
        <mxCell id="iDkQdx9FitHDoWIYwLgk-10" value="יש הודעות&lt;div&gt;ממתינות לטיפול?&lt;/div&gt;" style="rhombus;whiteSpace=wrap;html=1;" vertex="1" parent="1">
          <mxGeometry x="410" y="420" width="110" height="110" as="geometry" />
        </mxCell>
        <mxCell id="iDkQdx9FitHDoWIYwLgk-12" style="edgeStyle=orthogonalEdgeStyle;rounded=0;orthogonalLoop=1;jettySize=auto;html=1;exitX=0;exitY=0.5;exitDx=0;exitDy=0;entryX=0;entryY=0;entryDx=0;entryDy=0;" edge="1" parent="1" source="iDkQdx9FitHDoWIYwLgk-10" target="iDkQdx9FitHDoWIYwLgk-10">
          <mxGeometry relative="1" as="geometry">
            <Array as="points">
              <mxPoint x="380" y="475" />
              <mxPoint x="380" y="420" />
              <mxPoint x="438" y="420" />
            </Array>
          </mxGeometry>
        </mxCell>
        <mxCell id="iDkQdx9FitHDoWIYwLgk-13" value="לא" style="edgeLabel;html=1;align=center;verticalAlign=middle;resizable=0;points=[];" vertex="1" connectable="0" parent="iDkQdx9FitHDoWIYwLgk-12">
          <mxGeometry x="0.32" y="-2" relative="1" as="geometry">
            <mxPoint as="offset" />
          </mxGeometry>
        </mxCell>
        <mxCell id="iDkQdx9FitHDoWIYwLgk-21" style="edgeStyle=orthogonalEdgeStyle;rounded=0;orthogonalLoop=1;jettySize=auto;html=1;exitX=0.5;exitY=1;exitDx=0;exitDy=0;entryX=0.5;entryY=0;entryDx=0;entryDy=0;" edge="1" parent="1" source="iDkQdx9FitHDoWIYwLgk-17" target="M4k14wv83IE-usvoSfUF-8">
          <mxGeometry relative="1" as="geometry">
            <Array as="points">
              <mxPoint x="645" y="620" />
            </Array>
          </mxGeometry>
        </mxCell>
        <mxCell id="iDkQdx9FitHDoWIYwLgk-22" value="כן" style="edgeLabel;html=1;align=center;verticalAlign=middle;resizable=0;points=[];" vertex="1" connectable="0" parent="iDkQdx9FitHDoWIYwLgk-21">
          <mxGeometry x="-0.2533" y="-3" relative="1" as="geometry">
            <mxPoint as="offset" />
          </mxGeometry>
        </mxCell>
        <mxCell id="iDkQdx9FitHDoWIYwLgk-17" value="יש משחקים&lt;div&gt;שכבר התחילו?&lt;/div&gt;" style="rhombus;whiteSpace=wrap;html=1;" vertex="1" parent="1">
          <mxGeometry x="590" y="420" width="110" height="110" as="geometry" />
        </mxCell>
        <mxCell id="iDkQdx9FitHDoWIYwLgk-19" style="edgeStyle=orthogonalEdgeStyle;rounded=0;orthogonalLoop=1;jettySize=auto;html=1;exitX=0;exitY=0.5;exitDx=0;exitDy=0;entryX=0;entryY=0;entryDx=0;entryDy=0;" edge="1" parent="1" source="iDkQdx9FitHDoWIYwLgk-17" target="iDkQdx9FitHDoWIYwLgk-17">
          <mxGeometry relative="1" as="geometry">
            <Array as="points">
              <mxPoint x="560" y="475" />
              <mxPoint x="560" y="420" />
              <mxPoint x="618" y="420" />
            </Array>
          </mxGeometry>
        </mxCell>
        <mxCell id="iDkQdx9FitHDoWIYwLgk-23" value="לא" style="edgeLabel;html=1;align=center;verticalAlign=middle;resizable=0;points=[];" vertex="1" connectable="0" parent="iDkQdx9FitHDoWIYwLgk-19">
          <mxGeometry x="0.3253" relative="1" as="geometry">
            <mxPoint as="offset" />
          </mxGeometry>
        </mxCell>
      </root>
    </mxGraphModel>
  </diagram>
  <diagram id="gXK1ZlIVZ-Gc2rEeKdM_" name="Page-3">
    <mxGraphModel dx="1042" dy="570" grid="1" gridSize="10" guides="1" tooltips="1" connect="1" arrows="1" fold="1" page="1" pageScale="1" pageWidth="850" pageHeight="1100" math="0" shadow="0">
      <root>
        <mxCell id="0" />
        <mxCell id="1" parent="0" />
        <mxCell id="7hU1BdNhiKjM8anYOShs-10" style="edgeStyle=orthogonalEdgeStyle;rounded=0;orthogonalLoop=1;jettySize=auto;html=1;exitX=1;exitY=0.5;exitDx=0;exitDy=0;entryX=0;entryY=0.5;entryDx=0;entryDy=0;" edge="1" parent="1" source="6i4vmjrFjCILCtRcfg_w-1" target="ldNUheckNPO1Yu-tTwlE-1">
          <mxGeometry relative="1" as="geometry" />
        </mxCell>
        <mxCell id="6i4vmjrFjCILCtRcfg_w-1" value="לקוח" style="ellipse;whiteSpace=wrap;html=1;" parent="1" vertex="1">
          <mxGeometry x="150" y="185" width="120" height="70" as="geometry" />
        </mxCell>
        <mxCell id="ldNUheckNPO1Yu-tTwlE-5" style="edgeStyle=orthogonalEdgeStyle;rounded=0;orthogonalLoop=1;jettySize=auto;html=1;exitX=0.5;exitY=1;exitDx=0;exitDy=0;entryX=0.5;entryY=0;entryDx=0;entryDy=0;" parent="1" source="ldNUheckNPO1Yu-tTwlE-1" target="ldNUheckNPO1Yu-tTwlE-3" edge="1">
          <mxGeometry relative="1" as="geometry" />
        </mxCell>
        <mxCell id="7hU1BdNhiKjM8anYOShs-2" style="edgeStyle=orthogonalEdgeStyle;rounded=0;orthogonalLoop=1;jettySize=auto;html=1;exitX=0.5;exitY=1;exitDx=0;exitDy=0;entryX=0.5;entryY=0;entryDx=0;entryDy=0;" edge="1" parent="1" source="ldNUheckNPO1Yu-tTwlE-1" target="7hU1BdNhiKjM8anYOShs-1">
          <mxGeometry relative="1" as="geometry" />
        </mxCell>
        <mxCell id="ldNUheckNPO1Yu-tTwlE-1" value="התחברות לשרת" style="rounded=1;whiteSpace=wrap;html=1;" parent="1" vertex="1">
          <mxGeometry x="330" y="190" width="120" height="60" as="geometry" />
        </mxCell>
        <mxCell id="SOEZg-yQ0W8wTrqBVcQ9-5" style="edgeStyle=orthogonalEdgeStyle;rounded=0;orthogonalLoop=1;jettySize=auto;html=1;exitX=0.5;exitY=1;exitDx=0;exitDy=0;entryX=0.5;entryY=0;entryDx=0;entryDy=0;" parent="1" source="ldNUheckNPO1Yu-tTwlE-3" target="SOEZg-yQ0W8wTrqBVcQ9-4" edge="1">
          <mxGeometry relative="1" as="geometry" />
        </mxCell>
        <mxCell id="ldNUheckNPO1Yu-tTwlE-3" value="הצגת משך" style="rounded=1;whiteSpace=wrap;html=1;" parent="1" vertex="1">
          <mxGeometry x="230" y="300" width="120" height="60" as="geometry" />
        </mxCell>
        <mxCell id="SOEZg-yQ0W8wTrqBVcQ9-3" style="edgeStyle=orthogonalEdgeStyle;rounded=0;orthogonalLoop=1;jettySize=auto;html=1;exitX=0.5;exitY=1;exitDx=0;exitDy=0;entryX=0.5;entryY=0;entryDx=0;entryDy=0;" parent="1" source="ldNUheckNPO1Yu-tTwlE-4" target="SOEZg-yQ0W8wTrqBVcQ9-2" edge="1">
          <mxGeometry relative="1" as="geometry" />
        </mxCell>
        <mxCell id="7hU1BdNhiKjM8anYOShs-4" value="" style="edgeStyle=orthogonalEdgeStyle;rounded=0;orthogonalLoop=1;jettySize=auto;html=1;" edge="1" parent="1" source="ldNUheckNPO1Yu-tTwlE-4" target="7hU1BdNhiKjM8anYOShs-1">
          <mxGeometry relative="1" as="geometry" />
        </mxCell>
        <mxCell id="ldNUheckNPO1Yu-tTwlE-4" value="הקשבה להודעות מן&amp;nbsp;&lt;div&gt;השרת&lt;/div&gt;" style="rounded=1;whiteSpace=wrap;html=1;" parent="1" vertex="1">
          <mxGeometry x="445" y="470" width="120" height="60" as="geometry" />
        </mxCell>
        <mxCell id="SOEZg-yQ0W8wTrqBVcQ9-2" value="איחסון הודעות" style="rounded=1;whiteSpace=wrap;html=1;" parent="1" vertex="1">
          <mxGeometry x="445" y="570" width="120" height="60" as="geometry" />
        </mxCell>
        <mxCell id="SOEZg-yQ0W8wTrqBVcQ9-6" style="edgeStyle=orthogonalEdgeStyle;rounded=0;orthogonalLoop=1;jettySize=auto;html=1;exitX=0;exitY=0.5;exitDx=0;exitDy=0;entryX=0;entryY=0.5;entryDx=0;entryDy=0;" parent="1" source="SOEZg-yQ0W8wTrqBVcQ9-4" target="ldNUheckNPO1Yu-tTwlE-3" edge="1">
          <mxGeometry relative="1" as="geometry" />
        </mxCell>
        <mxCell id="SOEZg-yQ0W8wTrqBVcQ9-7" value="לא" style="edgeLabel;html=1;align=center;verticalAlign=middle;resizable=0;points=[];" parent="SOEZg-yQ0W8wTrqBVcQ9-6" vertex="1" connectable="0">
          <mxGeometry x="0.0296" y="2" relative="1" as="geometry">
            <mxPoint as="offset" />
          </mxGeometry>
        </mxCell>
        <mxCell id="7hU1BdNhiKjM8anYOShs-8" style="edgeStyle=orthogonalEdgeStyle;rounded=0;orthogonalLoop=1;jettySize=auto;html=1;exitX=0.5;exitY=1;exitDx=0;exitDy=0;entryX=0.5;entryY=0;entryDx=0;entryDy=0;" edge="1" parent="1" source="SOEZg-yQ0W8wTrqBVcQ9-4" target="SOEZg-yQ0W8wTrqBVcQ9-10">
          <mxGeometry relative="1" as="geometry" />
        </mxCell>
        <mxCell id="7hU1BdNhiKjM8anYOShs-9" value="כן" style="edgeLabel;html=1;align=center;verticalAlign=middle;resizable=0;points=[];" vertex="1" connectable="0" parent="7hU1BdNhiKjM8anYOShs-8">
          <mxGeometry x="-0.28" y="1" relative="1" as="geometry">
            <mxPoint as="offset" />
          </mxGeometry>
        </mxCell>
        <mxCell id="SOEZg-yQ0W8wTrqBVcQ9-4" value="יש הודעות באיחסון?" style="rhombus;whiteSpace=wrap;html=1;" parent="1" vertex="1">
          <mxGeometry x="235" y="410" width="110" height="110" as="geometry" />
        </mxCell>
        <mxCell id="SOEZg-yQ0W8wTrqBVcQ9-10" value="פעילות לפי הודעה" style="rounded=1;whiteSpace=wrap;html=1;" parent="1" vertex="1">
          <mxGeometry x="230" y="570" width="120" height="60" as="geometry" />
        </mxCell>
        <mxCell id="7hU1BdNhiKjM8anYOShs-3" style="edgeStyle=orthogonalEdgeStyle;rounded=0;orthogonalLoop=1;jettySize=auto;html=1;exitX=0.5;exitY=1;exitDx=0;exitDy=0;entryX=0.5;entryY=0;entryDx=0;entryDy=0;" edge="1" parent="1" source="7hU1BdNhiKjM8anYOShs-1" target="ldNUheckNPO1Yu-tTwlE-4">
          <mxGeometry relative="1" as="geometry" />
        </mxCell>
        <mxCell id="7hU1BdNhiKjM8anYOShs-5" value="כן" style="edgeLabel;html=1;align=center;verticalAlign=middle;resizable=0;points=[];" vertex="1" connectable="0" parent="7hU1BdNhiKjM8anYOShs-3">
          <mxGeometry x="-0.025" y="2" relative="1" as="geometry">
            <mxPoint as="offset" />
          </mxGeometry>
        </mxCell>
        <mxCell id="7hU1BdNhiKjM8anYOShs-1" value="יש הודעות&lt;div&gt;ממתינות לטיפול?&lt;/div&gt;" style="rhombus;whiteSpace=wrap;html=1;" vertex="1" parent="1">
          <mxGeometry x="450" y="300" width="110" height="110" as="geometry" />
        </mxCell>
        <mxCell id="7hU1BdNhiKjM8anYOShs-6" style="edgeStyle=orthogonalEdgeStyle;rounded=0;orthogonalLoop=1;jettySize=auto;html=1;exitX=1;exitY=0.5;exitDx=0;exitDy=0;entryX=1;entryY=0;entryDx=0;entryDy=0;" edge="1" parent="1" source="7hU1BdNhiKjM8anYOShs-1" target="7hU1BdNhiKjM8anYOShs-1">
          <mxGeometry relative="1" as="geometry">
            <Array as="points">
              <mxPoint x="600" y="355" />
              <mxPoint x="600" y="290" />
              <mxPoint x="533" y="290" />
            </Array>
          </mxGeometry>
        </mxCell>
        <mxCell id="7hU1BdNhiKjM8anYOShs-7" value="לא" style="edgeLabel;html=1;align=center;verticalAlign=middle;resizable=0;points=[];" vertex="1" connectable="0" parent="7hU1BdNhiKjM8anYOShs-6">
          <mxGeometry x="0.3326" y="4" relative="1" as="geometry">
            <mxPoint as="offset" />
          </mxGeometry>
        </mxCell>
      </root>
    </mxGraphModel>
  </diagram>
  <diagram id="R90u2FHfA_0jdRMYESqo" name="Page-4">
    <mxGraphModel dx="378" dy="671" grid="1" gridSize="10" guides="1" tooltips="1" connect="1" arrows="1" fold="1" page="1" pageScale="1" pageWidth="850" pageHeight="1100" math="0" shadow="0">
      <root>
        <mxCell id="0" />
        <mxCell id="1" parent="0" />
        <mxCell id="OYkD7KmBZVWil5waZAi9-36" style="edgeStyle=orthogonalEdgeStyle;rounded=0;orthogonalLoop=1;jettySize=auto;html=1;exitX=0.5;exitY=1;exitDx=0;exitDy=0;entryX=0.5;entryY=0;entryDx=0;entryDy=0;" parent="1" source="OYkD7KmBZVWil5waZAi9-38" target="OYkD7KmBZVWil5waZAi9-40" edge="1">
          <mxGeometry relative="1" as="geometry">
            <Array as="points">
              <mxPoint x="1060" y="160" />
              <mxPoint x="1170" y="160" />
            </Array>
          </mxGeometry>
        </mxCell>
        <mxCell id="OYkD7KmBZVWil5waZAi9-37" style="edgeStyle=orthogonalEdgeStyle;rounded=0;orthogonalLoop=1;jettySize=auto;html=1;exitX=0.5;exitY=1;exitDx=0;exitDy=0;entryX=0.5;entryY=0;entryDx=0;entryDy=0;" parent="1" source="OYkD7KmBZVWil5waZAi9-38" target="OYkD7KmBZVWil5waZAi9-51" edge="1">
          <mxGeometry relative="1" as="geometry">
            <mxPoint x="950" y="180" as="targetPoint" />
          </mxGeometry>
        </mxCell>
        <mxCell id="OYkD7KmBZVWil5waZAi9-38" value="התחלה" style="ellipse;whiteSpace=wrap;html=1;" parent="1" vertex="1">
          <mxGeometry x="1000" y="30" width="120" height="80" as="geometry" />
        </mxCell>
        <mxCell id="OYkD7KmBZVWil5waZAi9-39" style="edgeStyle=orthogonalEdgeStyle;rounded=0;orthogonalLoop=1;jettySize=auto;html=1;exitX=0.5;exitY=1;exitDx=0;exitDy=0;entryX=0.5;entryY=0;entryDx=0;entryDy=0;" parent="1" source="OYkD7KmBZVWil5waZAi9-40" target="OYkD7KmBZVWil5waZAi9-42" edge="1">
          <mxGeometry relative="1" as="geometry" />
        </mxCell>
        <mxCell id="OYkD7KmBZVWil5waZAi9-40" value="הכנת משחק חדש" style="rounded=1;whiteSpace=wrap;html=1;" parent="1" vertex="1">
          <mxGeometry x="1110" y="180" width="120" height="60" as="geometry" />
        </mxCell>
        <mxCell id="OYkD7KmBZVWil5waZAi9-41" style="edgeStyle=orthogonalEdgeStyle;rounded=0;orthogonalLoop=1;jettySize=auto;html=1;exitX=0.5;exitY=1;exitDx=0;exitDy=0;entryX=0.5;entryY=0;entryDx=0;entryDy=0;" parent="1" source="OYkD7KmBZVWil5waZAi9-42" target="OYkD7KmBZVWil5waZAi9-47" edge="1">
          <mxGeometry relative="1" as="geometry" />
        </mxCell>
        <mxCell id="OYkD7KmBZVWil5waZAi9-42" value="המתנה בלובי" style="rounded=1;whiteSpace=wrap;html=1;" parent="1" vertex="1">
          <mxGeometry x="1110" y="300" width="120" height="60" as="geometry" />
        </mxCell>
        <mxCell id="OYkD7KmBZVWil5waZAi9-43" style="edgeStyle=orthogonalEdgeStyle;rounded=0;orthogonalLoop=1;jettySize=auto;html=1;exitX=1;exitY=0.5;exitDx=0;exitDy=0;entryX=1;entryY=0.5;entryDx=0;entryDy=0;" parent="1" source="OYkD7KmBZVWil5waZAi9-47" target="OYkD7KmBZVWil5waZAi9-42" edge="1">
          <mxGeometry relative="1" as="geometry" />
        </mxCell>
        <mxCell id="OYkD7KmBZVWil5waZAi9-44" value="לא" style="edgeLabel;html=1;align=center;verticalAlign=middle;resizable=0;points=[];" parent="OYkD7KmBZVWil5waZAi9-43" vertex="1" connectable="0">
          <mxGeometry x="-0.3353" y="-1" relative="1" as="geometry">
            <mxPoint y="-1" as="offset" />
          </mxGeometry>
        </mxCell>
        <mxCell id="OYkD7KmBZVWil5waZAi9-45" style="edgeStyle=orthogonalEdgeStyle;rounded=0;orthogonalLoop=1;jettySize=auto;html=1;exitX=0.5;exitY=1;exitDx=0;exitDy=0;entryX=0.5;entryY=0;entryDx=0;entryDy=0;" parent="1" source="OYkD7KmBZVWil5waZAi9-47" target="OYkD7KmBZVWil5waZAi9-49" edge="1">
          <mxGeometry relative="1" as="geometry" />
        </mxCell>
        <mxCell id="OYkD7KmBZVWil5waZAi9-46" value="כן" style="edgeLabel;html=1;align=center;verticalAlign=middle;resizable=0;points=[];" parent="OYkD7KmBZVWil5waZAi9-45" vertex="1" connectable="0">
          <mxGeometry x="-0.5558" y="4" relative="1" as="geometry">
            <mxPoint x="-4" y="16" as="offset" />
          </mxGeometry>
        </mxCell>
        <mxCell id="OYkD7KmBZVWil5waZAi9-47" value="קיים שתי שחקנים&amp;nbsp;&lt;div&gt;או יותר?&lt;/div&gt;" style="rhombus;whiteSpace=wrap;html=1;" parent="1" vertex="1">
          <mxGeometry x="1102.5" y="460" width="135" height="130" as="geometry" />
        </mxCell>
        <mxCell id="OYkD7KmBZVWil5waZAi9-48" style="edgeStyle=orthogonalEdgeStyle;rounded=0;orthogonalLoop=1;jettySize=auto;html=1;exitX=0.5;exitY=1;exitDx=0;exitDy=0;entryX=1;entryY=0.5;entryDx=0;entryDy=0;" parent="1" source="OYkD7KmBZVWil5waZAi9-49" target="OYkD7KmBZVWil5waZAi9-68" edge="1">
          <mxGeometry relative="1" as="geometry" />
        </mxCell>
        <mxCell id="OYkD7KmBZVWil5waZAi9-49" value="להתחיל משחק&amp;nbsp;&lt;div&gt;בלחיצת כפתור&lt;/div&gt;" style="shape=parallelogram;perimeter=parallelogramPerimeter;whiteSpace=wrap;html=1;fixedSize=1;" parent="1" vertex="1">
          <mxGeometry x="1110" y="700" width="120" height="60" as="geometry" />
        </mxCell>
        <mxCell id="OYkD7KmBZVWil5waZAi9-50" style="edgeStyle=orthogonalEdgeStyle;rounded=0;orthogonalLoop=1;jettySize=auto;html=1;exitX=0.5;exitY=1;exitDx=0;exitDy=0;entryX=0.5;entryY=0;entryDx=0;entryDy=0;" parent="1" source="OYkD7KmBZVWil5waZAi9-51" target="OYkD7KmBZVWil5waZAi9-57" edge="1">
          <mxGeometry relative="1" as="geometry" />
        </mxCell>
        <mxCell id="OYkD7KmBZVWil5waZAi9-51" value="הצגת משחקים&amp;nbsp;&lt;div&gt;קיימים&lt;/div&gt;" style="shape=parallelogram;perimeter=parallelogramPerimeter;whiteSpace=wrap;html=1;fixedSize=1;" parent="1" vertex="1">
          <mxGeometry x="890" y="200" width="120" height="60" as="geometry" />
        </mxCell>
        <mxCell id="OYkD7KmBZVWil5waZAi9-52" style="edgeStyle=orthogonalEdgeStyle;rounded=0;orthogonalLoop=1;jettySize=auto;html=1;exitX=0;exitY=0.5;exitDx=0;exitDy=0;entryX=0;entryY=0.5;entryDx=0;entryDy=0;" parent="1" source="OYkD7KmBZVWil5waZAi9-57" target="OYkD7KmBZVWil5waZAi9-51" edge="1">
          <mxGeometry relative="1" as="geometry" />
        </mxCell>
        <mxCell id="OYkD7KmBZVWil5waZAi9-53" value="כן" style="edgeLabel;html=1;align=center;verticalAlign=middle;resizable=0;points=[];" parent="OYkD7KmBZVWil5waZAi9-52" vertex="1" connectable="0">
          <mxGeometry x="-0.2106" y="-2" relative="1" as="geometry">
            <mxPoint y="-1" as="offset" />
          </mxGeometry>
        </mxCell>
        <mxCell id="OYkD7KmBZVWil5waZAi9-54" style="edgeStyle=orthogonalEdgeStyle;rounded=0;orthogonalLoop=1;jettySize=auto;html=1;exitX=0.5;exitY=1;exitDx=0;exitDy=0;entryX=0.5;entryY=0;entryDx=0;entryDy=0;" parent="1" source="OYkD7KmBZVWil5waZAi9-57" target="OYkD7KmBZVWil5waZAi9-59" edge="1">
          <mxGeometry relative="1" as="geometry" />
        </mxCell>
        <mxCell id="OYkD7KmBZVWil5waZAi9-55" value="ל" style="edgeLabel;html=1;align=center;verticalAlign=middle;resizable=0;points=[];" parent="OYkD7KmBZVWil5waZAi9-54" vertex="1" connectable="0">
          <mxGeometry x="-0.0617" y="1" relative="1" as="geometry">
            <mxPoint as="offset" />
          </mxGeometry>
        </mxCell>
        <mxCell id="OYkD7KmBZVWil5waZAi9-56" value="לא" style="edgeLabel;html=1;align=center;verticalAlign=middle;resizable=0;points=[];" parent="OYkD7KmBZVWil5waZAi9-54" vertex="1" connectable="0">
          <mxGeometry x="-0.096" y="-3" relative="1" as="geometry">
            <mxPoint as="offset" />
          </mxGeometry>
        </mxCell>
        <mxCell id="OYkD7KmBZVWil5waZAi9-57" value="כבר יש 3 שחקנים&amp;nbsp;&lt;div&gt;במשחק?&lt;/div&gt;" style="rhombus;whiteSpace=wrap;html=1;" parent="1" vertex="1">
          <mxGeometry x="880" y="330" width="110" height="110" as="geometry" />
        </mxCell>
        <mxCell id="OYkD7KmBZVWil5waZAi9-58" style="edgeStyle=orthogonalEdgeStyle;rounded=0;orthogonalLoop=1;jettySize=auto;html=1;exitX=0.5;exitY=1;exitDx=0;exitDy=0;entryX=0.5;entryY=0;entryDx=0;entryDy=0;" parent="1" source="OYkD7KmBZVWil5waZAi9-59" target="OYkD7KmBZVWil5waZAi9-64" edge="1">
          <mxGeometry relative="1" as="geometry" />
        </mxCell>
        <mxCell id="OYkD7KmBZVWil5waZAi9-59" value="הצטרפות למשחק והמתנה בלובי" style="rounded=1;whiteSpace=wrap;html=1;" parent="1" vertex="1">
          <mxGeometry x="875" y="530" width="120" height="60" as="geometry" />
        </mxCell>
        <mxCell id="OYkD7KmBZVWil5waZAi9-60" style="edgeStyle=orthogonalEdgeStyle;rounded=0;orthogonalLoop=1;jettySize=auto;html=1;exitX=1;exitY=0.5;exitDx=0;exitDy=0;entryX=0;entryY=0.5;entryDx=0;entryDy=0;" parent="1" source="OYkD7KmBZVWil5waZAi9-64" target="OYkD7KmBZVWil5waZAi9-47" edge="1">
          <mxGeometry relative="1" as="geometry" />
        </mxCell>
        <mxCell id="OYkD7KmBZVWil5waZAi9-61" value="לא" style="edgeLabel;html=1;align=center;verticalAlign=middle;resizable=0;points=[];" parent="OYkD7KmBZVWil5waZAi9-60" vertex="1" connectable="0">
          <mxGeometry x="-0.2268" y="1" relative="1" as="geometry">
            <mxPoint as="offset" />
          </mxGeometry>
        </mxCell>
        <mxCell id="OYkD7KmBZVWil5waZAi9-62" style="edgeStyle=orthogonalEdgeStyle;rounded=0;orthogonalLoop=1;jettySize=auto;html=1;exitX=0.5;exitY=1;exitDx=0;exitDy=0;entryX=0.5;entryY=0;entryDx=0;entryDy=0;" parent="1" source="OYkD7KmBZVWil5waZAi9-64" target="OYkD7KmBZVWil5waZAi9-67" edge="1">
          <mxGeometry relative="1" as="geometry" />
        </mxCell>
        <mxCell id="OYkD7KmBZVWil5waZAi9-63" value="כן" style="edgeLabel;html=1;align=center;verticalAlign=middle;resizable=0;points=[];" parent="OYkD7KmBZVWil5waZAi9-62" vertex="1" connectable="0">
          <mxGeometry x="-0.302" y="-4" relative="1" as="geometry">
            <mxPoint as="offset" />
          </mxGeometry>
        </mxCell>
        <mxCell id="OYkD7KmBZVWil5waZAi9-64" value="המשחק התחיל?" style="rhombus;whiteSpace=wrap;html=1;" parent="1" vertex="1">
          <mxGeometry x="880" y="650" width="120" height="120" as="geometry" />
        </mxCell>
        <mxCell id="OYkD7KmBZVWil5waZAi9-65" style="edgeStyle=orthogonalEdgeStyle;rounded=0;orthogonalLoop=1;jettySize=auto;html=1;exitX=0.5;exitY=1;exitDx=0;exitDy=0;entryX=0.5;entryY=0;entryDx=0;entryDy=0;" parent="1" source="OYkD7KmBZVWil5waZAi9-67" target="OYkD7KmBZVWil5waZAi9-68" edge="1">
          <mxGeometry relative="1" as="geometry" />
        </mxCell>
        <mxCell id="OYkD7KmBZVWil5waZAi9-66" value="כן" style="edgeLabel;html=1;align=center;verticalAlign=middle;resizable=0;points=[];" parent="OYkD7KmBZVWil5waZAi9-65" vertex="1" connectable="0">
          <mxGeometry x="-0.4714" y="-1" relative="1" as="geometry">
            <mxPoint as="offset" />
          </mxGeometry>
        </mxCell>
        <mxCell id="OYkD7KmBZVWil5waZAi9-67" value="האם המשחק&amp;nbsp;&lt;div&gt;הסתיים?&lt;/div&gt;" style="rhombus;whiteSpace=wrap;html=1;" parent="1" vertex="1">
          <mxGeometry x="885" y="840" width="110" height="110" as="geometry" />
        </mxCell>
        <mxCell id="OYkD7KmBZVWil5waZAi9-68" value="משחק התחיל" style="ellipse;whiteSpace=wrap;html=1;" parent="1" vertex="1">
          <mxGeometry x="880" y="1010" width="120" height="80" as="geometry" />
        </mxCell>
        <mxCell id="OYkD7KmBZVWil5waZAi9-69" style="edgeStyle=orthogonalEdgeStyle;rounded=0;orthogonalLoop=1;jettySize=auto;html=1;exitX=1;exitY=0.5;exitDx=0;exitDy=0;entryX=0.5;entryY=0;entryDx=0;entryDy=0;" parent="1" source="OYkD7KmBZVWil5waZAi9-67" target="OYkD7KmBZVWil5waZAi9-67" edge="1">
          <mxGeometry relative="1" as="geometry">
            <Array as="points">
              <mxPoint x="1015" y="895" />
              <mxPoint x="1015" y="800" />
              <mxPoint x="940" y="800" />
            </Array>
          </mxGeometry>
        </mxCell>
        <mxCell id="OYkD7KmBZVWil5waZAi9-70" value="לא" style="edgeLabel;html=1;align=center;verticalAlign=middle;resizable=0;points=[];" parent="OYkD7KmBZVWil5waZAi9-69" vertex="1" connectable="0">
          <mxGeometry x="-0.5851" y="-1" relative="1" as="geometry">
            <mxPoint y="-1" as="offset" />
          </mxGeometry>
        </mxCell>
      </root>
    </mxGraphModel>
  </diagram>
  <diagram id="WheRUjAJpQi502NPXSNX" name="Page-5">
    <mxGraphModel dx="1228" dy="671" grid="1" gridSize="10" guides="1" tooltips="1" connect="1" arrows="1" fold="1" page="1" pageScale="1" pageWidth="850" pageHeight="1100" math="0" shadow="0">
      <root>
        <mxCell id="0" />
        <mxCell id="1" parent="0" />
        <mxCell id="_oL_hTveHqiNtOjwz3Ew-1" value="" style="edgeStyle=orthogonalEdgeStyle;rounded=0;orthogonalLoop=1;jettySize=auto;html=1;" parent="1" source="_oL_hTveHqiNtOjwz3Ew-3" target="_oL_hTveHqiNtOjwz3Ew-4" edge="1">
          <mxGeometry relative="1" as="geometry" />
        </mxCell>
        <mxCell id="_oL_hTveHqiNtOjwz3Ew-2" value="" style="edgeStyle=orthogonalEdgeStyle;rounded=0;orthogonalLoop=1;jettySize=auto;html=1;" parent="1" source="_oL_hTveHqiNtOjwz3Ew-3" target="_oL_hTveHqiNtOjwz3Ew-6" edge="1">
          <mxGeometry relative="1" as="geometry" />
        </mxCell>
        <mxCell id="_oL_hTveHqiNtOjwz3Ew-3" value="התחלה" style="ellipse;whiteSpace=wrap;html=1;" parent="1" vertex="1">
          <mxGeometry x="420" y="30" width="120" height="80" as="geometry" />
        </mxCell>
        <mxCell id="_oL_hTveHqiNtOjwz3Ew-4" value="טעינת DB" style="rounded=1;whiteSpace=wrap;html=1;" parent="1" vertex="1">
          <mxGeometry x="210" y="50" width="120" height="60" as="geometry" />
        </mxCell>
        <mxCell id="_oL_hTveHqiNtOjwz3Ew-5" value="" style="edgeStyle=orthogonalEdgeStyle;rounded=0;orthogonalLoop=1;jettySize=auto;html=1;" parent="1" source="_oL_hTveHqiNtOjwz3Ew-6" target="_oL_hTveHqiNtOjwz3Ew-9" edge="1">
          <mxGeometry relative="1" as="geometry" />
        </mxCell>
        <mxCell id="_oL_hTveHqiNtOjwz3Ew-6" value="טעינת server" style="rounded=1;whiteSpace=wrap;html=1;" parent="1" vertex="1">
          <mxGeometry x="410" y="170" width="120" height="60" as="geometry" />
        </mxCell>
        <mxCell id="_oL_hTveHqiNtOjwz3Ew-7" value="" style="edgeStyle=orthogonalEdgeStyle;rounded=0;orthogonalLoop=1;jettySize=auto;html=1;" parent="1" source="_oL_hTveHqiNtOjwz3Ew-9" target="_oL_hTveHqiNtOjwz3Ew-11" edge="1">
          <mxGeometry relative="1" as="geometry" />
        </mxCell>
        <mxCell id="_oL_hTveHqiNtOjwz3Ew-8" style="edgeStyle=orthogonalEdgeStyle;rounded=0;orthogonalLoop=1;jettySize=auto;html=1;exitX=0.5;exitY=1;exitDx=0;exitDy=0;" parent="1" source="_oL_hTveHqiNtOjwz3Ew-9" target="_oL_hTveHqiNtOjwz3Ew-13" edge="1">
          <mxGeometry relative="1" as="geometry">
            <mxPoint x="580" y="510" as="targetPoint" />
          </mxGeometry>
        </mxCell>
        <mxCell id="_oL_hTveHqiNtOjwz3Ew-9" value="התחברות לקוח ראשון" style="whiteSpace=wrap;html=1;rounded=1;" parent="1" vertex="1">
          <mxGeometry x="410" y="310" width="120" height="60" as="geometry" />
        </mxCell>
        <mxCell id="_oL_hTveHqiNtOjwz3Ew-10" style="edgeStyle=orthogonalEdgeStyle;rounded=0;orthogonalLoop=1;jettySize=auto;html=1;exitX=0.5;exitY=1;exitDx=0;exitDy=0;entryX=0.5;entryY=0;entryDx=0;entryDy=0;" parent="1" source="_oL_hTveHqiNtOjwz3Ew-11" target="_oL_hTveHqiNtOjwz3Ew-15" edge="1">
          <mxGeometry relative="1" as="geometry" />
        </mxCell>
        <mxCell id="_oL_hTveHqiNtOjwz3Ew-11" value="sign up" style="whiteSpace=wrap;html=1;rounded=1;" parent="1" vertex="1">
          <mxGeometry x="290" y="510" width="120" height="60" as="geometry" />
        </mxCell>
        <mxCell id="_oL_hTveHqiNtOjwz3Ew-12" value="" style="edgeStyle=orthogonalEdgeStyle;rounded=0;orthogonalLoop=1;jettySize=auto;html=1;" parent="1" source="_oL_hTveHqiNtOjwz3Ew-13" target="_oL_hTveHqiNtOjwz3Ew-27" edge="1">
          <mxGeometry relative="1" as="geometry" />
        </mxCell>
        <mxCell id="_oL_hTveHqiNtOjwz3Ew-13" value="log in" style="rounded=1;whiteSpace=wrap;html=1;" parent="1" vertex="1">
          <mxGeometry x="530" y="510" width="120" height="60" as="geometry" />
        </mxCell>
        <mxCell id="_oL_hTveHqiNtOjwz3Ew-14" style="edgeStyle=orthogonalEdgeStyle;rounded=0;orthogonalLoop=1;jettySize=auto;html=1;exitX=0.5;exitY=1;exitDx=0;exitDy=0;entryX=0.5;entryY=0;entryDx=0;entryDy=0;" parent="1" source="_oL_hTveHqiNtOjwz3Ew-15" target="_oL_hTveHqiNtOjwz3Ew-20" edge="1">
          <mxGeometry relative="1" as="geometry" />
        </mxCell>
        <mxCell id="_oL_hTveHqiNtOjwz3Ew-15" value="הזנת שם משתמש וסיסמה" style="shape=parallelogram;perimeter=parallelogramPerimeter;whiteSpace=wrap;html=1;fixedSize=1;" parent="1" vertex="1">
          <mxGeometry x="300" y="640" width="120" height="60" as="geometry" />
        </mxCell>
        <mxCell id="_oL_hTveHqiNtOjwz3Ew-16" style="edgeStyle=orthogonalEdgeStyle;rounded=0;orthogonalLoop=1;jettySize=auto;html=1;exitX=0;exitY=0.5;exitDx=0;exitDy=0;entryX=0;entryY=0.5;entryDx=0;entryDy=0;" parent="1" source="_oL_hTveHqiNtOjwz3Ew-20" target="_oL_hTveHqiNtOjwz3Ew-15" edge="1">
          <mxGeometry relative="1" as="geometry">
            <Array as="points">
              <mxPoint x="260" y="830" />
              <mxPoint x="260" y="670" />
            </Array>
          </mxGeometry>
        </mxCell>
        <mxCell id="_oL_hTveHqiNtOjwz3Ew-17" value="לא" style="edgeLabel;html=1;align=center;verticalAlign=middle;resizable=0;points=[];" parent="_oL_hTveHqiNtOjwz3Ew-16" vertex="1" connectable="0">
          <mxGeometry x="-0.2128" y="-1" relative="1" as="geometry">
            <mxPoint as="offset" />
          </mxGeometry>
        </mxCell>
        <mxCell id="_oL_hTveHqiNtOjwz3Ew-18" style="edgeStyle=orthogonalEdgeStyle;rounded=0;orthogonalLoop=1;jettySize=auto;html=1;exitX=0.5;exitY=1;exitDx=0;exitDy=0;entryX=0.5;entryY=0;entryDx=0;entryDy=0;" parent="1" source="_oL_hTveHqiNtOjwz3Ew-20" target="_oL_hTveHqiNtOjwz3Ew-25" edge="1">
          <mxGeometry relative="1" as="geometry" />
        </mxCell>
        <mxCell id="_oL_hTveHqiNtOjwz3Ew-19" value="כן" style="edgeLabel;html=1;align=center;verticalAlign=middle;resizable=0;points=[];" parent="_oL_hTveHqiNtOjwz3Ew-18" vertex="1" connectable="0">
          <mxGeometry x="-0.2044" y="-1" relative="1" as="geometry">
            <mxPoint as="offset" />
          </mxGeometry>
        </mxCell>
        <mxCell id="_oL_hTveHqiNtOjwz3Ew-20" value="שם משתמש וסיסמה מתאימים?" style="rhombus;whiteSpace=wrap;html=1;" parent="1" vertex="1">
          <mxGeometry x="300" y="770" width="120" height="120" as="geometry" />
        </mxCell>
        <mxCell id="_oL_hTveHqiNtOjwz3Ew-21" style="edgeStyle=orthogonalEdgeStyle;rounded=0;orthogonalLoop=1;jettySize=auto;html=1;exitX=0;exitY=0.5;exitDx=0;exitDy=0;entryX=0;entryY=0.5;entryDx=0;entryDy=0;" parent="1" source="_oL_hTveHqiNtOjwz3Ew-25" target="_oL_hTveHqiNtOjwz3Ew-15" edge="1">
          <mxGeometry relative="1" as="geometry">
            <Array as="points">
              <mxPoint x="280" y="1020" />
              <mxPoint x="280" y="670" />
            </Array>
          </mxGeometry>
        </mxCell>
        <mxCell id="_oL_hTveHqiNtOjwz3Ew-22" value="כן" style="edgeLabel;html=1;align=center;verticalAlign=middle;resizable=0;points=[];" parent="_oL_hTveHqiNtOjwz3Ew-21" vertex="1" connectable="0">
          <mxGeometry x="-0.6781" y="1" relative="1" as="geometry">
            <mxPoint as="offset" />
          </mxGeometry>
        </mxCell>
        <mxCell id="_oL_hTveHqiNtOjwz3Ew-23" style="edgeStyle=orthogonalEdgeStyle;rounded=0;orthogonalLoop=1;jettySize=auto;html=1;exitX=0.5;exitY=1;exitDx=0;exitDy=0;entryX=0.5;entryY=0;entryDx=0;entryDy=0;" parent="1" source="_oL_hTveHqiNtOjwz3Ew-25" target="_oL_hTveHqiNtOjwz3Ew-33" edge="1">
          <mxGeometry relative="1" as="geometry" />
        </mxCell>
        <mxCell id="_oL_hTveHqiNtOjwz3Ew-24" value="לא" style="edgeLabel;html=1;align=center;verticalAlign=middle;resizable=0;points=[];" parent="_oL_hTveHqiNtOjwz3Ew-23" vertex="1" connectable="0">
          <mxGeometry x="-0.3888" y="2" relative="1" as="geometry">
            <mxPoint as="offset" />
          </mxGeometry>
        </mxCell>
        <mxCell id="_oL_hTveHqiNtOjwz3Ew-25" value="קים כבר משתמש&lt;div&gt;&amp;nbsp;אם שם זה?&lt;/div&gt;" style="rhombus;whiteSpace=wrap;html=1;" parent="1" vertex="1">
          <mxGeometry x="300" y="950" width="130" height="140" as="geometry" />
        </mxCell>
        <mxCell id="_oL_hTveHqiNtOjwz3Ew-26" value="" style="edgeStyle=orthogonalEdgeStyle;rounded=0;orthogonalLoop=1;jettySize=auto;html=1;" parent="1" source="_oL_hTveHqiNtOjwz3Ew-27" target="_oL_hTveHqiNtOjwz3Ew-32" edge="1">
          <mxGeometry relative="1" as="geometry" />
        </mxCell>
        <mxCell id="_oL_hTveHqiNtOjwz3Ew-27" value="הזנת שם משתמש וסיסמה" style="shape=parallelogram;perimeter=parallelogramPerimeter;whiteSpace=wrap;html=1;fixedSize=1;" parent="1" vertex="1">
          <mxGeometry x="520" y="640" width="120" height="60" as="geometry" />
        </mxCell>
        <mxCell id="_oL_hTveHqiNtOjwz3Ew-28" style="edgeStyle=orthogonalEdgeStyle;rounded=0;orthogonalLoop=1;jettySize=auto;html=1;exitX=1;exitY=0.5;exitDx=0;exitDy=0;entryX=1;entryY=0.5;entryDx=0;entryDy=0;" parent="1" source="_oL_hTveHqiNtOjwz3Ew-32" target="_oL_hTveHqiNtOjwz3Ew-27" edge="1">
          <mxGeometry relative="1" as="geometry" />
        </mxCell>
        <mxCell id="_oL_hTveHqiNtOjwz3Ew-29" value="כן" style="edgeLabel;html=1;align=center;verticalAlign=middle;resizable=0;points=[];" parent="_oL_hTveHqiNtOjwz3Ew-28" vertex="1" connectable="0">
          <mxGeometry x="-0.3823" y="1" relative="1" as="geometry">
            <mxPoint y="-1" as="offset" />
          </mxGeometry>
        </mxCell>
        <mxCell id="_oL_hTveHqiNtOjwz3Ew-30" style="edgeStyle=orthogonalEdgeStyle;rounded=0;orthogonalLoop=1;jettySize=auto;html=1;exitX=0.5;exitY=1;exitDx=0;exitDy=0;entryX=0.5;entryY=0;entryDx=0;entryDy=0;" parent="1" source="_oL_hTveHqiNtOjwz3Ew-32" target="_oL_hTveHqiNtOjwz3Ew-33" edge="1">
          <mxGeometry relative="1" as="geometry">
            <mxPoint x="509.9999999999998" y="1130" as="targetPoint" />
            <Array as="points">
              <mxPoint x="580" y="1025" />
              <mxPoint x="530" y="1025" />
              <mxPoint x="530" y="1160" />
            </Array>
          </mxGeometry>
        </mxCell>
        <mxCell id="_oL_hTveHqiNtOjwz3Ew-31" value="לא" style="edgeLabel;html=1;align=center;verticalAlign=middle;resizable=0;points=[];" parent="_oL_hTveHqiNtOjwz3Ew-30" vertex="1" connectable="0">
          <mxGeometry x="-0.6113" y="-4" relative="1" as="geometry">
            <mxPoint as="offset" />
          </mxGeometry>
        </mxCell>
        <mxCell id="_oL_hTveHqiNtOjwz3Ew-32" value="שם משתמש כבר&amp;nbsp;&lt;div&gt;בשימוש?&lt;/div&gt;" style="rhombus;whiteSpace=wrap;html=1;" parent="1" vertex="1">
          <mxGeometry x="515" y="760" width="130" height="130" as="geometry" />
        </mxCell>
        <mxCell id="_oL_hTveHqiNtOjwz3Ew-33" value="מעבר לדף הבית" style="ellipse;whiteSpace=wrap;html=1;" parent="1" vertex="1">
          <mxGeometry x="460" y="1160" width="120" height="80" as="geometry" />
        </mxCell>
      </root>
    </mxGraphModel>
  </diagram>
  <diagram id="7Pv7nFYAv7Ou1s2TeUh1" name="Page-6">
    <mxGraphModel dx="3090" dy="3225" grid="1" gridSize="10" guides="1" tooltips="1" connect="1" arrows="1" fold="1" page="1" pageScale="1" pageWidth="850" pageHeight="1100" math="0" shadow="0">
      <root>
        <mxCell id="0" />
        <mxCell id="1" parent="0" />
        <mxCell id="HSw4YwjTGPgw6KhDG9P6-45" style="edgeStyle=orthogonalEdgeStyle;rounded=0;orthogonalLoop=1;jettySize=auto;html=1;exitX=0.5;exitY=1;exitDx=0;exitDy=0;entryX=0.5;entryY=0;entryDx=0;entryDy=0;" edge="1" parent="1" source="HSw4YwjTGPgw6KhDG9P6-46" target="HSw4YwjTGPgw6KhDG9P6-48">
          <mxGeometry relative="1" as="geometry" />
        </mxCell>
        <mxCell id="HSw4YwjTGPgw6KhDG9P6-46" value="התחלה" style="ellipse;whiteSpace=wrap;html=1;" vertex="1" parent="1">
          <mxGeometry x="1119" y="-20" width="120" height="80" as="geometry" />
        </mxCell>
        <mxCell id="HSw4YwjTGPgw6KhDG9P6-47" style="edgeStyle=orthogonalEdgeStyle;rounded=0;orthogonalLoop=1;jettySize=auto;html=1;exitX=0.5;exitY=1;exitDx=0;exitDy=0;entryX=0.5;entryY=0;entryDx=0;entryDy=0;" edge="1" parent="1" source="HSw4YwjTGPgw6KhDG9P6-48" target="HSw4YwjTGPgw6KhDG9P6-84">
          <mxGeometry relative="1" as="geometry" />
        </mxCell>
        <mxCell id="HSw4YwjTGPgw6KhDG9P6-48" value="הצגת קלפים של השחקן, הצגת שם משתמש ותפוחים של כל משתמש" style="rounded=1;whiteSpace=wrap;html=1;" vertex="1" parent="1">
          <mxGeometry x="1114" y="125" width="130" height="70" as="geometry" />
        </mxCell>
        <mxCell id="HSw4YwjTGPgw6KhDG9P6-49" style="edgeStyle=orthogonalEdgeStyle;rounded=0;orthogonalLoop=1;jettySize=auto;html=1;exitX=0.5;exitY=1;exitDx=0;exitDy=0;entryX=0.5;entryY=0;entryDx=0;entryDy=0;" edge="1" parent="1" source="HSw4YwjTGPgw6KhDG9P6-53" target="HSw4YwjTGPgw6KhDG9P6-62">
          <mxGeometry relative="1" as="geometry" />
        </mxCell>
        <mxCell id="HSw4YwjTGPgw6KhDG9P6-50" value="כן" style="edgeLabel;html=1;align=center;verticalAlign=middle;resizable=0;points=[];" vertex="1" connectable="0" parent="HSw4YwjTGPgw6KhDG9P6-49">
          <mxGeometry x="-0.2851" y="-2" relative="1" as="geometry">
            <mxPoint as="offset" />
          </mxGeometry>
        </mxCell>
        <mxCell id="HSw4YwjTGPgw6KhDG9P6-51" style="edgeStyle=orthogonalEdgeStyle;rounded=0;orthogonalLoop=1;jettySize=auto;html=1;exitX=0;exitY=0.5;exitDx=0;exitDy=0;entryX=0;entryY=0.5;entryDx=0;entryDy=0;" edge="1" parent="1" source="HSw4YwjTGPgw6KhDG9P6-53" target="HSw4YwjTGPgw6KhDG9P6-84">
          <mxGeometry relative="1" as="geometry" />
        </mxCell>
        <mxCell id="HSw4YwjTGPgw6KhDG9P6-52" value="לא" style="edgeLabel;html=1;align=center;verticalAlign=middle;resizable=0;points=[];" vertex="1" connectable="0" parent="HSw4YwjTGPgw6KhDG9P6-51">
          <mxGeometry x="0.0698" y="10" relative="1" as="geometry">
            <mxPoint as="offset" />
          </mxGeometry>
        </mxCell>
        <mxCell id="HSw4YwjTGPgw6KhDG9P6-53" value="האם תורי?" style="rhombus;whiteSpace=wrap;html=1;" vertex="1" parent="1">
          <mxGeometry x="1124" y="518" width="110" height="110" as="geometry" />
        </mxCell>
        <mxCell id="HSw4YwjTGPgw6KhDG9P6-54" style="edgeStyle=orthogonalEdgeStyle;rounded=0;orthogonalLoop=1;jettySize=auto;html=1;exitX=1;exitY=0.5;exitDx=0;exitDy=0;entryX=1;entryY=0.5;entryDx=0;entryDy=0;" edge="1" parent="1" source="HSw4YwjTGPgw6KhDG9P6-62" target="HSw4YwjTGPgw6KhDG9P6-70">
          <mxGeometry relative="1" as="geometry">
            <Array as="points">
              <mxPoint x="1620" y="733" />
              <mxPoint x="1620" y="888" />
            </Array>
          </mxGeometry>
        </mxCell>
        <mxCell id="HSw4YwjTGPgw6KhDG9P6-55" style="edgeStyle=orthogonalEdgeStyle;rounded=0;orthogonalLoop=1;jettySize=auto;html=1;exitX=1;exitY=0.5;exitDx=0;exitDy=0;entryX=1;entryY=0.5;entryDx=0;entryDy=0;" edge="1" parent="1" source="HSw4YwjTGPgw6KhDG9P6-62" target="HSw4YwjTGPgw6KhDG9P6-66">
          <mxGeometry relative="1" as="geometry">
            <Array as="points">
              <mxPoint x="1490" y="733" />
              <mxPoint x="1490" y="888" />
            </Array>
          </mxGeometry>
        </mxCell>
        <mxCell id="HSw4YwjTGPgw6KhDG9P6-56" style="edgeStyle=orthogonalEdgeStyle;rounded=0;orthogonalLoop=1;jettySize=auto;html=1;exitX=1;exitY=0.5;exitDx=0;exitDy=0;entryX=1;entryY=0.5;entryDx=0;entryDy=0;" edge="1" parent="1" source="HSw4YwjTGPgw6KhDG9P6-62" target="HSw4YwjTGPgw6KhDG9P6-68">
          <mxGeometry relative="1" as="geometry">
            <Array as="points">
              <mxPoint x="1289" y="733" />
              <mxPoint x="1289" y="908" />
            </Array>
          </mxGeometry>
        </mxCell>
        <mxCell id="HSw4YwjTGPgw6KhDG9P6-57" value="כן" style="edgeLabel;html=1;align=center;verticalAlign=middle;resizable=0;points=[];" vertex="1" connectable="0" parent="HSw4YwjTGPgw6KhDG9P6-56">
          <mxGeometry x="-0.7683" y="1" relative="1" as="geometry">
            <mxPoint as="offset" />
          </mxGeometry>
        </mxCell>
        <mxCell id="HSw4YwjTGPgw6KhDG9P6-58" style="edgeStyle=orthogonalEdgeStyle;rounded=0;orthogonalLoop=1;jettySize=auto;html=1;exitX=0;exitY=0.5;exitDx=0;exitDy=0;entryX=0.5;entryY=0;entryDx=0;entryDy=0;" edge="1" parent="1" source="HSw4YwjTGPgw6KhDG9P6-62" target="HSw4YwjTGPgw6KhDG9P6-64">
          <mxGeometry relative="1" as="geometry" />
        </mxCell>
        <mxCell id="HSw4YwjTGPgw6KhDG9P6-59" style="edgeStyle=orthogonalEdgeStyle;rounded=0;orthogonalLoop=1;jettySize=auto;html=1;exitX=0;exitY=0.5;exitDx=0;exitDy=0;entryX=0;entryY=0.5;entryDx=0;entryDy=0;" edge="1" parent="1" source="HSw4YwjTGPgw6KhDG9P6-62" target="HSw4YwjTGPgw6KhDG9P6-68">
          <mxGeometry relative="1" as="geometry">
            <Array as="points">
              <mxPoint x="1080" y="733" />
              <mxPoint x="1080" y="908" />
            </Array>
          </mxGeometry>
        </mxCell>
        <mxCell id="HSw4YwjTGPgw6KhDG9P6-60" style="edgeStyle=orthogonalEdgeStyle;rounded=0;orthogonalLoop=1;jettySize=auto;html=1;exitX=0;exitY=0.5;exitDx=0;exitDy=0;entryX=0;entryY=0.5;entryDx=0;entryDy=0;" edge="1" parent="1" source="HSw4YwjTGPgw6KhDG9P6-62" target="HSw4YwjTGPgw6KhDG9P6-66">
          <mxGeometry relative="1" as="geometry">
            <Array as="points">
              <mxPoint x="940" y="733" />
              <mxPoint x="940" y="848" />
              <mxPoint x="1310" y="848" />
              <mxPoint x="1310" y="888" />
            </Array>
          </mxGeometry>
        </mxCell>
        <mxCell id="HSw4YwjTGPgw6KhDG9P6-61" value="לא" style="edgeLabel;html=1;align=center;verticalAlign=middle;resizable=0;points=[];" vertex="1" connectable="0" parent="HSw4YwjTGPgw6KhDG9P6-60">
          <mxGeometry x="-0.9428" y="-1" relative="1" as="geometry">
            <mxPoint as="offset" />
          </mxGeometry>
        </mxCell>
        <mxCell id="HSw4YwjTGPgw6KhDG9P6-62" value="האם משהו המר יותר ממני בסבב?" style="rhombus;whiteSpace=wrap;html=1;" vertex="1" parent="1">
          <mxGeometry x="1124" y="678" width="110" height="110" as="geometry" />
        </mxCell>
        <mxCell id="HSw4YwjTGPgw6KhDG9P6-63" style="edgeStyle=orthogonalEdgeStyle;rounded=0;orthogonalLoop=1;jettySize=auto;html=1;exitX=0.5;exitY=1;exitDx=0;exitDy=0;entryX=0.5;entryY=0;entryDx=0;entryDy=0;" edge="1" parent="1" source="HSw4YwjTGPgw6KhDG9P6-64" target="HSw4YwjTGPgw6KhDG9P6-78">
          <mxGeometry relative="1" as="geometry" />
        </mxCell>
        <mxCell id="HSw4YwjTGPgw6KhDG9P6-64" value="Check" style="shape=parallelogram;perimeter=parallelogramPerimeter;whiteSpace=wrap;html=1;fixedSize=1;" vertex="1" parent="1">
          <mxGeometry x="950" y="878" width="120" height="60" as="geometry" />
        </mxCell>
        <mxCell id="HSw4YwjTGPgw6KhDG9P6-65" style="edgeStyle=orthogonalEdgeStyle;rounded=0;orthogonalLoop=1;jettySize=auto;html=1;exitX=0.5;exitY=1;exitDx=0;exitDy=0;entryX=0.5;entryY=0;entryDx=0;entryDy=0;" edge="1" parent="1" source="HSw4YwjTGPgw6KhDG9P6-66" target="HSw4YwjTGPgw6KhDG9P6-74">
          <mxGeometry relative="1" as="geometry" />
        </mxCell>
        <mxCell id="HSw4YwjTGPgw6KhDG9P6-66" value="Raise" style="shape=parallelogram;perimeter=parallelogramPerimeter;whiteSpace=wrap;html=1;fixedSize=1;" vertex="1" parent="1">
          <mxGeometry x="1330" y="878" width="120" height="60" as="geometry" />
        </mxCell>
        <mxCell id="HSw4YwjTGPgw6KhDG9P6-67" style="edgeStyle=orthogonalEdgeStyle;rounded=0;orthogonalLoop=1;jettySize=auto;html=1;exitX=0.5;exitY=1;exitDx=0;exitDy=0;entryX=0.5;entryY=0;entryDx=0;entryDy=0;" edge="1" parent="1" source="HSw4YwjTGPgw6KhDG9P6-68" target="HSw4YwjTGPgw6KhDG9P6-76">
          <mxGeometry relative="1" as="geometry" />
        </mxCell>
        <mxCell id="HSw4YwjTGPgw6KhDG9P6-68" value="Fold" style="shape=parallelogram;perimeter=parallelogramPerimeter;whiteSpace=wrap;html=1;fixedSize=1;" vertex="1" parent="1">
          <mxGeometry x="1150" y="878" width="120" height="60" as="geometry" />
        </mxCell>
        <mxCell id="HSw4YwjTGPgw6KhDG9P6-69" style="edgeStyle=orthogonalEdgeStyle;rounded=0;orthogonalLoop=1;jettySize=auto;html=1;exitX=0.5;exitY=1;exitDx=0;exitDy=0;entryX=0.5;entryY=0;entryDx=0;entryDy=0;" edge="1" parent="1" source="HSw4YwjTGPgw6KhDG9P6-70" target="HSw4YwjTGPgw6KhDG9P6-72">
          <mxGeometry relative="1" as="geometry" />
        </mxCell>
        <mxCell id="HSw4YwjTGPgw6KhDG9P6-70" value="Call" style="shape=parallelogram;perimeter=parallelogramPerimeter;whiteSpace=wrap;html=1;fixedSize=1;" vertex="1" parent="1">
          <mxGeometry x="1490" y="878" width="120" height="60" as="geometry" />
        </mxCell>
        <mxCell id="HSw4YwjTGPgw6KhDG9P6-71" style="edgeStyle=orthogonalEdgeStyle;rounded=0;orthogonalLoop=1;jettySize=auto;html=1;exitX=0.5;exitY=1;exitDx=0;exitDy=0;entryX=0.5;entryY=0;entryDx=0;entryDy=0;" edge="1" parent="1" source="HSw4YwjTGPgw6KhDG9P6-72" target="HSw4YwjTGPgw6KhDG9P6-79">
          <mxGeometry relative="1" as="geometry" />
        </mxCell>
        <mxCell id="HSw4YwjTGPgw6KhDG9P6-72" value="הימור על אותו כמות כסף שהשחקן האחרון המר" style="rounded=1;whiteSpace=wrap;html=1;" vertex="1" parent="1">
          <mxGeometry x="1480" y="1008" width="130" height="60" as="geometry" />
        </mxCell>
        <mxCell id="HSw4YwjTGPgw6KhDG9P6-73" style="edgeStyle=orthogonalEdgeStyle;rounded=0;orthogonalLoop=1;jettySize=auto;html=1;exitX=0.5;exitY=1;exitDx=0;exitDy=0;entryX=0.5;entryY=0;entryDx=0;entryDy=0;" edge="1" parent="1" source="HSw4YwjTGPgw6KhDG9P6-74" target="HSw4YwjTGPgw6KhDG9P6-79">
          <mxGeometry relative="1" as="geometry" />
        </mxCell>
        <mxCell id="HSw4YwjTGPgw6KhDG9P6-74" value="הימור כסף: הסכום נבחר מן השחקן" style="rounded=1;whiteSpace=wrap;html=1;" vertex="1" parent="1">
          <mxGeometry x="1320" y="1008" width="120" height="60" as="geometry" />
        </mxCell>
        <mxCell id="HSw4YwjTGPgw6KhDG9P6-75" style="edgeStyle=orthogonalEdgeStyle;rounded=0;orthogonalLoop=1;jettySize=auto;html=1;exitX=0.5;exitY=1;exitDx=0;exitDy=0;" edge="1" parent="1" source="HSw4YwjTGPgw6KhDG9P6-76">
          <mxGeometry relative="1" as="geometry">
            <mxPoint x="1270" y="1138" as="targetPoint" />
          </mxGeometry>
        </mxCell>
        <mxCell id="HSw4YwjTGPgw6KhDG9P6-76" value="הופך שחקן פועל לצופה למשחק זה" style="rounded=1;whiteSpace=wrap;html=1;" vertex="1" parent="1">
          <mxGeometry x="1130" y="1008" width="120" height="60" as="geometry" />
        </mxCell>
        <mxCell id="HSw4YwjTGPgw6KhDG9P6-77" style="edgeStyle=orthogonalEdgeStyle;rounded=0;orthogonalLoop=1;jettySize=auto;html=1;exitX=0.5;exitY=1;exitDx=0;exitDy=0;entryX=0.5;entryY=0;entryDx=0;entryDy=0;" edge="1" parent="1" source="HSw4YwjTGPgw6KhDG9P6-78" target="HSw4YwjTGPgw6KhDG9P6-79">
          <mxGeometry relative="1" as="geometry" />
        </mxCell>
        <mxCell id="HSw4YwjTGPgw6KhDG9P6-78" value="דלג על תור" style="rounded=1;whiteSpace=wrap;html=1;" vertex="1" parent="1">
          <mxGeometry x="940" y="1008" width="120" height="60" as="geometry" />
        </mxCell>
        <mxCell id="HSw4YwjTGPgw6KhDG9P6-79" value="לעבור לשחקן הבא" style="rounded=1;whiteSpace=wrap;html=1;" vertex="1" parent="1">
          <mxGeometry x="1210" y="1138" width="120" height="60" as="geometry" />
        </mxCell>
        <mxCell id="HSw4YwjTGPgw6KhDG9P6-80" style="edgeStyle=orthogonalEdgeStyle;rounded=0;orthogonalLoop=1;jettySize=auto;html=1;exitX=0.5;exitY=1;exitDx=0;exitDy=0;entryX=0.5;entryY=0;entryDx=0;entryDy=0;" edge="1" parent="1" source="HSw4YwjTGPgw6KhDG9P6-84" target="HSw4YwjTGPgw6KhDG9P6-53">
          <mxGeometry relative="1" as="geometry" />
        </mxCell>
        <mxCell id="HSw4YwjTGPgw6KhDG9P6-81" value="לא" style="edgeLabel;html=1;align=center;verticalAlign=middle;resizable=0;points=[];" vertex="1" connectable="0" parent="HSw4YwjTGPgw6KhDG9P6-80">
          <mxGeometry x="-0.0335" relative="1" as="geometry">
            <mxPoint as="offset" />
          </mxGeometry>
        </mxCell>
        <mxCell id="HSw4YwjTGPgw6KhDG9P6-82" style="edgeStyle=orthogonalEdgeStyle;rounded=0;orthogonalLoop=1;jettySize=auto;html=1;exitX=1;exitY=0.5;exitDx=0;exitDy=0;entryX=0;entryY=0.5;entryDx=0;entryDy=0;" edge="1" parent="1" source="HSw4YwjTGPgw6KhDG9P6-84" target="HSw4YwjTGPgw6KhDG9P6-86">
          <mxGeometry relative="1" as="geometry" />
        </mxCell>
        <mxCell id="HSw4YwjTGPgw6KhDG9P6-83" value="כן" style="edgeLabel;html=1;align=center;verticalAlign=middle;resizable=0;points=[];" vertex="1" connectable="0" parent="HSw4YwjTGPgw6KhDG9P6-82">
          <mxGeometry x="-0.1458" y="-4" relative="1" as="geometry">
            <mxPoint as="offset" />
          </mxGeometry>
        </mxCell>
        <mxCell id="HSw4YwjTGPgw6KhDG9P6-84" value="האם המשחק הסתיים? או נשאר רק שחקן אחד שמשחק?" style="rhombus;whiteSpace=wrap;html=1;" vertex="1" parent="1">
          <mxGeometry x="1099" y="270" width="160" height="160" as="geometry" />
        </mxCell>
        <mxCell id="HSw4YwjTGPgw6KhDG9P6-85" style="edgeStyle=orthogonalEdgeStyle;rounded=0;orthogonalLoop=1;jettySize=auto;html=1;exitX=1;exitY=0.5;exitDx=0;exitDy=0;entryX=0;entryY=0.5;entryDx=0;entryDy=0;" edge="1" parent="1" source="HSw4YwjTGPgw6KhDG9P6-86" target="HSw4YwjTGPgw6KhDG9P6-88">
          <mxGeometry relative="1" as="geometry" />
        </mxCell>
        <mxCell id="HSw4YwjTGPgw6KhDG9P6-86" value="המשחק הסתיים, הזוכה&amp;nbsp;&lt;div&gt;מקבל את הבסף באמצע&lt;/div&gt;" style="rounded=1;whiteSpace=wrap;html=1;" vertex="1" parent="1">
          <mxGeometry x="1360" y="320" width="120" height="60" as="geometry" />
        </mxCell>
        <mxCell id="HSw4YwjTGPgw6KhDG9P6-87" style="edgeStyle=orthogonalEdgeStyle;rounded=0;orthogonalLoop=1;jettySize=auto;html=1;exitX=0.5;exitY=0;exitDx=0;exitDy=0;entryX=1;entryY=0.5;entryDx=0;entryDy=0;" edge="1" parent="1" source="HSw4YwjTGPgw6KhDG9P6-88" target="HSw4YwjTGPgw6KhDG9P6-48">
          <mxGeometry relative="1" as="geometry" />
        </mxCell>
        <mxCell id="HSw4YwjTGPgw6KhDG9P6-88" value="לחץ כפתור&amp;nbsp;&lt;div&gt;&quot;משחק חוזר&quot;&lt;/div&gt;" style="shape=parallelogram;perimeter=parallelogramPerimeter;whiteSpace=wrap;html=1;fixedSize=1;" vertex="1" parent="1">
          <mxGeometry x="1550" y="320" width="120" height="60" as="geometry" />
        </mxCell>
      </root>
    </mxGraphModel>
  </diagram>
</mxfile>
